<?xml version="1.0" encoding="UTF-8" standalone="no"?>
<!DOCTYPE svg PUBLIC "-//W3C//DTD SVG 1.1//EN" "http://www.w3.org/Graphics/SVG/1.1/DTD/svg11.dtd">
<svg version="1.1" xmlns="http://www.w3.org/2000/svg" xmlns:xlink="http://www.w3.org/1999/xlink" preserveAspectRatio="xMidYMid meet" viewBox="0 0 1500 500" width="1500" height="500"><defs><path d="M1500 0C1500 0 1500 0 1500 0C1500 300 1500 466.67 1500 500C1500 500 1500 500 1500 500C600 500 100 500 0 500C0 500 0 500 0 500C0 200 0 33.33 0 0C0 0 0 0 0 0C900 0 1400 0 1500 0Z" id="b1dccTFCYJ"></path><path d="M809.49 297.07L761.97 315.37" id="bnXICIQd5"></path><path d="M739.99 91.19L703.44 128.02" id="b4tJwOC4M9"></path><path d="M844.87 266.64L668.58 334.45" id="aBm8XbN9i"></path><path d="M608.92 245.33L744.55 108.34" id="cdZSS7jSQ"></path><path d="M629.1 231.83C600.77 242.73 586.63 274.54 597.53 302.88C608.43 331.22 640.24 345.35 668.58 334.45C696.92 323.55 711.06 291.74 700.16 263.4C689.26 235.06 657.44 220.93 629.1 231.83Z" id="adr3jo604"></path><path d="M655.33 251.33L655.39 251.34L655.45 251.35L655.51 251.36L655.56 251.37L655.62 251.38L655.68 251.39L655.73 251.41L655.78 251.43L655.84 251.45L655.89 251.47L655.94 251.5L655.99 251.52L656.03 251.55L656.08 251.58L656.13 251.61L656.17 251.64L656.21 251.67L656.26 251.71L656.3 251.74L656.34 251.78L656.37 251.82L656.41 251.86L656.44 251.9L656.48 251.94L656.51 251.98L656.54 252.03L656.57 252.07L656.59 252.12L656.62 252.16L656.64 252.21L656.66 252.26L656.68 252.31L656.7 252.36L656.71 252.41L656.73 252.47L656.74 252.52L656.75 252.57L656.75 252.63L657.97 261.07L658.12 261.12L658.26 261.18L658.41 261.24L658.55 261.3L658.69 261.36L658.84 261.42L658.98 261.49L659.12 261.55L659.26 261.62L659.4 261.69L659.54 261.75L659.68 261.83L659.82 261.9L659.96 261.97L660.09 262.04L660.23 262.12L660.37 262.19L660.5 262.27L660.64 262.35L660.77 262.43L660.9 262.51L661.04 262.59L661.17 262.67L661.3 262.75L661.43 262.83L661.56 262.92L661.69 263L661.82 263.09L661.95 263.17L662.08 263.26L662.21 263.35L662.33 263.43L662.46 263.52L662.58 263.61L662.71 263.7L662.83 263.79L662.96 263.88L663.08 263.97L663.2 264.06L663.33 264.15L671.28 260.99L671.33 260.97L671.39 260.95L671.44 260.94L671.5 260.93L671.55 260.92L671.61 260.91L671.67 260.9L671.72 260.9L671.78 260.9L671.83 260.89L671.89 260.9L671.94 260.9L672 260.9L672.05 260.91L672.11 260.92L672.16 260.93L672.22 260.94L672.27 260.95L672.32 260.97L672.37 260.99L672.43 261.01L672.48 261.03L672.53 261.05L672.58 261.07L672.62 261.1L672.67 261.13L672.72 261.16L672.76 261.19L672.81 261.22L672.85 261.26L672.9 261.3L672.94 261.34L672.98 261.38L673.02 261.42L673.06 261.47L673.09 261.51L673.13 261.56L673.16 261.61L673.19 261.66L673.23 261.72L679.64 272.75L679.67 272.81L679.69 272.86L679.72 272.92L679.74 272.97L679.76 273.03L679.78 273.08L679.79 273.14L679.8 273.2L679.81 273.25L679.82 273.31L679.83 273.36L679.83 273.42L679.84 273.48L679.84 273.53L679.84 273.59L679.83 273.64L679.83 273.7L679.82 273.75L679.81 273.8L679.8 273.86L679.79 273.91L679.77 273.96L679.75 274.02L679.74 274.07L679.72 274.12L679.69 274.17L679.67 274.22L679.65 274.27L679.62 274.31L679.59 274.36L679.56 274.41L679.53 274.45L679.5 274.5L679.46 274.54L679.43 274.58L679.39 274.63L679.35 274.67L679.31 274.71L679.27 274.74L679.23 274.78L672.5 280.05L672.51 280.13L672.52 280.2L672.53 280.28L672.54 280.35L672.55 280.43L672.56 280.5L672.57 280.58L672.58 280.66L672.59 280.73L672.6 280.81L672.61 280.89L672.62 280.97L672.63 281.04L672.64 281.12L672.64 281.2L672.65 281.28L672.66 281.36L672.66 281.44L672.67 281.52L672.68 281.6L672.68 281.68L672.69 281.75L672.69 281.83L672.7 281.91L672.7 281.99L672.71 282.07L672.71 282.15L672.72 282.23L672.72 282.31L672.72 282.38L672.73 282.46L672.73 282.54L672.73 282.61L672.73 282.69L672.73 282.77L672.74 282.84L672.74 282.92L672.74 282.99L672.74 283.07L672.74 283.14L672.74 283.21L672.74 283.29L672.74 283.36L672.74 283.43L672.73 283.51L672.73 283.58L672.73 283.66L672.73 283.73L672.73 283.81L672.72 283.88L672.72 283.96L672.72 284.03L672.71 284.11L672.71 284.19L672.7 284.26L672.7 284.34L672.69 284.42L672.69 284.49L672.68 284.57L672.68 284.65L672.67 284.73L672.67 284.81L672.66 284.88L672.65 284.96L672.64 285.04L672.64 285.12L672.63 285.2L672.62 285.27L672.61 285.35L672.6 285.43L672.59 285.51L672.58 285.59L672.57 285.67L672.56 285.75L672.55 285.83L672.54 285.91L672.53 285.98L672.52 286.06L672.51 286.14L672.5 286.22L679.23 291.5L679.28 291.53L679.32 291.57L679.37 291.61L679.41 291.65L679.45 291.69L679.49 291.74L679.53 291.78L679.56 291.82L679.59 291.87L679.62 291.92L679.65 291.96L679.68 292.01L679.71 292.06L679.73 292.11L679.75 292.16L679.77 292.21L679.79 292.26L679.8 292.31L679.82 292.37L679.83 292.42L679.84 292.47L679.85 292.53L679.85 292.58L679.86 292.64L679.86 292.69L679.86 292.75L679.85 292.8L679.85 292.86L679.84 292.91L679.83 292.97L679.82 293.02L679.81 293.08L679.8 293.14L679.78 293.19L679.76 293.25L679.74 293.3L679.72 293.36L679.69 293.41L679.67 293.47L679.64 293.52L673.23 304.56L673.19 304.61L673.16 304.67L673.13 304.72L673.09 304.76L673.06 304.81L673.02 304.86L672.98 304.9L672.94 304.94L672.9 304.98L672.85 305.02L672.81 305.05L672.76 305.09L672.72 305.12L672.67 305.15L672.62 305.18L672.58 305.2L672.53 305.23L672.48 305.25L672.42 305.27L672.37 305.29L672.32 305.31L672.27 305.32L672.22 305.34L672.16 305.35L672.11 305.36L672.05 305.37L672 305.37L671.94 305.38L671.89 305.38L671.83 305.38L671.78 305.38L671.72 305.38L671.67 305.37L671.61 305.37L671.55 305.36L671.5 305.35L671.44 305.34L671.39 305.32L671.33 305.31L671.28 305.29L663.33 302.13L663.2 302.22L663.08 302.31L662.96 302.4L662.83 302.49L662.71 302.57L662.58 302.66L662.46 302.75L662.33 302.84L662.21 302.92L662.08 303.01L661.95 303.09L661.82 303.18L661.69 303.26L661.56 303.34L661.43 303.42L661.3 303.5L661.17 303.58L661.04 303.66L660.9 303.74L660.77 303.82L660.64 303.9L660.5 303.97L660.37 304.05L660.23 304.12L660.09 304.2L659.96 304.27L659.82 304.34L659.68 304.42L659.54 304.49L659.4 304.56L659.26 304.63L659.12 304.69L658.98 304.76L658.84 304.83L658.69 304.89L658.55 304.96L658.41 305.02L658.26 305.09L658.12 305.15L657.97 305.21L656.75 313.65L656.75 313.7L656.74 313.76L656.73 313.81L656.71 313.86L656.7 313.91L656.68 313.96L656.66 314.01L656.64 314.06L656.62 314.11L656.59 314.16L656.57 314.2L656.54 314.25L656.51 314.29L656.48 314.34L656.44 314.38L656.41 314.42L656.37 314.46L656.33 314.5L656.3 314.53L656.26 314.57L656.21 314.6L656.17 314.64L656.13 314.67L656.08 314.7L656.03 314.73L655.99 314.75L655.94 314.78L655.89 314.8L655.84 314.83L655.78 314.85L655.73 314.86L655.68 314.88L655.62 314.9L655.56 314.91L655.51 314.92L655.45 314.93L655.39 314.94L655.33 314.94L655.27 314.95L655.21 314.95L642.47 314.95L642.41 314.95L642.35 314.94L642.29 314.94L642.23 314.93L642.18 314.92L642.12 314.91L642.06 314.9L642.01 314.88L641.95 314.87L641.9 314.85L641.85 314.83L641.8 314.8L641.75 314.78L641.7 314.76L641.65 314.73L641.6 314.7L641.56 314.67L641.51 314.64L641.47 314.61L641.43 314.57L641.39 314.54L641.35 314.5L641.31 314.46L641.27 314.42L641.24 314.38L641.21 314.34L641.18 314.3L641.15 314.25L641.12 314.21L641.09 314.16L641.07 314.11L641.04 314.06L641.02 314.01L641 313.96L640.99 313.91L640.97 313.86L640.96 313.81L640.95 313.76L640.94 313.7L640.93 313.65L639.71 305.21L639.57 305.15L639.42 305.1L639.28 305.04L639.13 304.98L638.99 304.92L638.85 304.85L638.71 304.79L638.56 304.73L638.42 304.66L638.28 304.59L638.14 304.52L638 304.45L637.87 304.38L637.73 304.31L637.59 304.23L637.45 304.16L637.32 304.08L637.18 304.01L637.05 303.93L636.91 303.85L636.78 303.77L636.65 303.69L636.51 303.61L636.38 303.53L636.25 303.44L636.12 303.36L635.99 303.28L635.86 303.19L635.73 303.11L635.61 303.02L635.48 302.93L635.35 302.84L635.22 302.76L635.1 302.67L634.97 302.58L634.85 302.49L634.73 302.4L634.6 302.31L634.48 302.22L634.36 302.13L626.41 305.29L626.35 305.31L626.3 305.32L626.24 305.34L626.18 305.35L626.13 305.36L626.07 305.37L626.02 305.37L625.96 305.38L625.91 305.38L625.85 305.38L625.79 305.38L625.74 305.38L625.68 305.37L625.63 305.37L625.58 305.36L625.52 305.35L625.47 305.34L625.41 305.32L625.36 305.31L625.31 305.29L625.26 305.27L625.21 305.25L625.16 305.23L625.11 305.2L625.06 305.18L625.01 305.15L624.97 305.12L624.92 305.09L624.87 305.05L624.83 305.02L624.79 304.98L624.75 304.94L624.71 304.9L624.67 304.86L624.63 304.81L624.59 304.76L624.56 304.72L624.52 304.67L624.49 304.61L624.46 304.56L618.05 293.52L618.02 293.47L618 293.41L617.98 293.36L617.97 293.3L617.95 293.25L617.93 293.19L617.92 293.14L617.91 293.08L617.9 293.02L617.89 292.97L617.89 292.91L617.88 292.86L617.88 292.8L617.88 292.75L617.88 292.69L617.89 292.64L617.89 292.58L617.9 292.53L617.91 292.47L617.92 292.42L617.93 292.37L617.94 292.31L617.96 292.26L617.97 292.21L617.99 292.16L618.01 292.11L618.03 292.06L618.05 292.01L618.08 291.96L618.1 291.92L618.13 291.87L618.16 291.82L618.19 291.78L618.23 291.74L618.26 291.69L618.3 291.65L618.33 291.61L618.37 291.57L618.41 291.53L618.45 291.5L625.19 286.22L625.18 286.15L625.16 286.08L625.15 286L625.14 285.93L625.13 285.85L625.12 285.78L625.11 285.7L625.1 285.63L625.09 285.55L625.08 285.48L625.07 285.4L625.06 285.33L625.06 285.25L625.05 285.17L625.04 285.1L625.03 285.02L625.03 284.94L625.02 284.87L625.01 284.79L625.01 284.71L625 284.63L624.99 284.55L624.99 284.48L624.98 284.4L624.98 284.32L624.98 284.24L624.97 284.16L624.97 284.09L624.96 284.01L624.96 283.93L624.96 283.85L624.96 283.77L624.95 283.69L624.95 283.61L624.95 283.53L624.95 283.45L624.95 283.38L624.95 283.3L624.95 283.22L624.95 283.14L624.95 283.06L624.95 282.98L624.95 282.9L624.95 282.82L624.95 282.75L624.95 282.67L624.95 282.59L624.95 282.51L624.96 282.44L624.96 282.36L624.96 282.28L624.97 282.21L624.97 282.13L624.98 282.05L624.98 281.98L624.98 281.9L624.99 281.82L624.99 281.75L625 281.67L625.01 281.6L625.01 281.52L625.02 281.44L625.03 281.37L625.03 281.29L625.04 281.22L625.05 281.14L625.06 281.06L625.06 280.99L625.07 280.91L625.08 280.83L625.09 280.76L625.1 280.68L625.11 280.6L625.12 280.52L625.13 280.45L625.14 280.37L625.15 280.29L625.16 280.21L625.18 280.13L625.19 280.05L618.45 274.78L618.41 274.74L618.36 274.71L618.32 274.67L618.27 274.63L618.23 274.58L618.19 274.54L618.16 274.5L618.12 274.45L618.09 274.41L618.06 274.36L618.03 274.31L618 274.27L617.98 274.22L617.95 274.17L617.93 274.12L617.91 274.07L617.9 274.02L617.88 273.96L617.87 273.91L617.86 273.86L617.85 273.8L617.84 273.75L617.83 273.7L617.83 273.64L617.83 273.59L617.83 273.53L617.83 273.48L617.83 273.42L617.84 273.36L617.85 273.31L617.86 273.25L617.87 273.2L617.89 273.14L617.9 273.08L617.92 273.03L617.94 272.97L617.97 272.92L617.99 272.86L618.02 272.81L618.05 272.75L624.46 261.72L624.49 261.66L624.52 261.61L624.56 261.56L624.59 261.51L624.63 261.47L624.67 261.42L624.71 261.38L624.75 261.34L624.79 261.3L624.83 261.26L624.87 261.22L624.92 261.19L624.97 261.16L625.01 261.13L625.06 261.1L625.11 261.07L625.16 261.05L625.21 261.03L625.26 261.01L625.31 260.99L625.36 260.97L625.41 260.95L625.47 260.94L625.52 260.93L625.58 260.92L625.63 260.91L625.68 260.9L625.74 260.9L625.79 260.9L625.85 260.89L625.91 260.9L625.96 260.9L626.02 260.9L626.07 260.91L626.13 260.92L626.18 260.93L626.24 260.94L626.3 260.95L626.35 260.97L626.41 260.99L634.36 264.15L634.48 264.06L634.6 263.97L634.73 263.88L634.85 263.79L634.97 263.7L635.1 263.61L635.22 263.53L635.35 263.44L635.48 263.35L635.61 263.27L635.73 263.18L635.86 263.1L635.99 263.02L636.12 262.94L636.25 262.85L636.38 262.77L636.51 262.69L636.65 262.61L636.78 262.53L636.91 262.46L637.05 262.38L637.18 262.3L637.32 262.23L637.45 262.15L637.59 262.08L637.73 262.01L637.87 261.93L638 261.86L638.14 261.79L638.28 261.72L638.42 261.65L638.56 261.58L638.71 261.52L638.85 261.45L638.99 261.38L639.13 261.32L639.28 261.25L639.42 261.19L639.57 261.13L639.71 261.07L640.93 252.63L640.94 252.57L640.95 252.52L640.96 252.47L640.97 252.42L640.99 252.36L641 252.31L641.02 252.26L641.04 252.21L641.07 252.17L641.09 252.12L641.12 252.07L641.15 252.03L641.18 251.98L641.21 251.94L641.24 251.9L641.28 251.86L641.31 251.82L641.35 251.78L641.39 251.74L641.43 251.71L641.47 251.67L641.51 251.64L641.56 251.61L641.6 251.58L641.65 251.55L641.7 251.52L641.75 251.5L641.8 251.47L641.85 251.45L641.9 251.43L641.95 251.41L642.01 251.4L642.06 251.38L642.12 251.37L642.18 251.36L642.23 251.35L642.29 251.34L642.35 251.33L642.41 251.33L642.47 251.33L655.21 251.33L655.27 251.33L655.33 251.33ZM646.08 272.28L644.81 272.69L643.6 273.24L642.47 273.92L641.44 274.74L640.51 275.66L639.69 276.69L639 277.82L638.44 279.03L638.03 280.31L637.77 281.66L637.68 283.06L637.77 284.46L638.03 285.81L638.44 287.1L639 288.31L639.69 289.44L640.51 290.48L641.44 291.41L642.47 292.23L643.6 292.91L644.81 293.46L646.08 293.86L647.42 294.1L648.8 294.17L650.19 294.09L651.52 293.84L652.8 293.43L654 292.88L655.13 292.19L656.16 291.38L657.09 290.45L657.91 289.42L658.6 288.3L659.16 287.09L659.58 285.8L659.83 284.46L659.92 283.06L659.83 281.67L659.58 280.34L659.17 279.06L658.62 277.85L657.93 276.73L657.12 275.7L656.2 274.76L655.16 273.95L654.04 273.25L652.83 272.7L651.55 272.28L650.2 272.03L648.8 271.94L647.42 272.03L646.08 272.28Z" id="lUHzIIWzO"></path><path d="M899.76 143.15C880.81 93.89 825.52 69.32 776.26 88.26C727 107.21 702.43 162.5 721.38 211.76C740.32 261.02 795.61 285.59 844.87 266.64C894.13 247.7 918.7 192.41 899.76 143.15Z" id="eyyDuDjJs"></path><path d="M842.72 116.23C849.27 119.59 851.98 121.67 859.08 128.81C868.79 138.57 873.17 145.85 877 158.62C879.93 168.41 880.31 183.97 877.85 193.5C871.42 218.42 852.19 237.83 827.72 244.08C820.04 246.05 807.51 246.88 801.08 245.86C786.17 243.5 773.8 237.34 762.64 226.72C753.65 218.16 748.01 208.78 744.14 195.89C741.03 185.57 740.82 169.62 743.65 159.65C750.37 136 769.62 116.74 792.86 110.42C798.07 109.01 801.96 108.61 810.59 108.61C824.03 108.61 831.16 110.3 842.72 116.23Z" id="agREw7iVB"></path><path d="M816.55 121.44C818.05 123.03 818.88 123.91 819.05 124.09C820.43 125.54 825.31 128.67 829.9 131.02C835.2 133.75 838.76 136.15 839.64 137.61C840.4 138.88 842.58 141.33 844.48 143.06C847.83 146.11 847.89 146.26 846.43 147.87C845.6 148.79 843.8 150 842.43 150.57C841.02 151.15 839.94 152.24 839.94 153.08C839.94 155.94 836.54 159 831.86 160.36C824.81 162.41 822.93 164.29 822.93 169.27C822.93 171.55 822.54 173.65 822.06 173.94C821.59 174.24 821.44 174.87 821.73 175.34C822.03 175.82 821.02 177.49 819.51 179.06C816.04 182.63 816.53 184.57 820.89 184.57C822.88 184.57 824.41 184.03 825.1 183.09C826.09 181.72 826.26 181.78 827.18 183.81C828.39 186.47 837.9 192.22 841.08 192.22C843.34 192.22 844.24 194.12 842.49 195.2C842.02 195.49 841.64 196.32 841.64 197.05C841.64 198.02 842.15 198.23 843.55 197.83C848.36 196.46 850.4 196.23 849.85 197.12C849.54 197.62 849.77 198.19 850.35 198.39C853.02 199.29 844.63 209.2 836.14 215.19C833.65 216.95 831.72 219.04 831.43 220.29C830.8 223.01 826.85 224.43 819.76 224.5C814.77 224.54 808.46 226.54 808.46 228.08C808.46 228.44 807.03 229.74 805.28 230.97C805.06 231.12 804 231.86 802.09 233.2C808.21 232.98 811.61 232.86 812.29 232.84C828.36 232.28 839.21 227.68 850.07 216.82C856.57 210.31 860.42 204.23 863.57 195.49C865.6 189.84 865.81 188.08 865.82 176.91C865.83 165.67 865.64 164.07 863.63 158.84C860.38 150.41 856.37 144.17 850.12 137.86C841.93 129.6 830.95 123.77 820.37 122.06C819.86 121.97 818.59 121.77 816.55 121.44Z" id="bcjnCApiT"></path><path d="M774.89 134.13C774.56 134.41 772.86 135.78 769.82 138.24C769.98 142.82 770.06 145.37 770.08 145.88C770.24 150.44 770.74 153.78 771.33 154.16C771.87 154.52 774.42 155.39 776.99 156.1C784.78 158.25 788.95 160.77 791.59 164.94C794.57 169.63 794.65 172.93 791.87 176.57C788.84 180.54 775.98 188.89 772.09 189.41C769.09 189.81 768.61 189.53 764.02 184.72C761.33 181.9 759.13 178.84 759.13 177.92C759.13 177.01 758.17 175.63 757 174.86C756.86 174.77 756.15 174.31 754.88 173.47C754.88 177.2 754.88 179.28 754.88 179.69C754.88 194.44 762.69 210.51 774.55 220.14C779.04 223.79 779.08 223.81 779.62 221.8C780.83 217.25 782.08 215.9 784.57 216.45C786.16 216.8 787.28 216.54 788.02 215.65C788.62 214.93 789.78 214.34 790.61 214.34C791.84 214.34 792.17 213.39 792.48 209.02C792.92 202.73 799.4 186.26 801.67 185.66C802.43 185.46 804.43 182.93 806.1 180.04C808.44 175.99 808.95 174.43 808.31 173.23C807.7 172.08 807.86 171.24 808.94 170.06C810.23 168.63 810.27 167.99 809.31 164.57C808.72 162.45 807.9 160.5 807.5 160.25C805.99 159.32 806.86 155.1 809.88 148.66C810.09 148.21 811.13 146 813 142.02C811.96 140.87 811.38 140.24 811.26 140.11C810.31 139.07 809.06 137.31 808.5 136.21C807.61 134.5 807.73 133.94 809.32 132.26C811.06 130.4 811.09 130.17 809.77 128.17C808.88 126.81 808.58 125.27 808.94 123.84C809.48 121.7 809.36 121.62 805.76 121.62C796.91 121.62 783.79 126.94 774.89 134.13Z" id="b1NtDColyr"></path></defs><g><g><g><use xlink:href="#b1dccTFCYJ" opacity="1" fill="#1d2b3a" fill-opacity="1"></use><g><use xlink:href="#b1dccTFCYJ" opacity="1" fill-opacity="0" stroke="#000000" stroke-width="0.7" stroke-opacity="0"></use></g></g><g><use xlink:href="#bnXICIQd5" opacity="1" fill="#000000" fill-opacity="0"></use><g><use xlink:href="#bnXICIQd5" opacity="1" fill-opacity="0" stroke="#fcffff" stroke-width="1.21" stroke-opacity="1"></use></g></g><g><use xlink:href="#b4tJwOC4M9" opacity="1" fill="#000000" fill-opacity="0"></use><g><use xlink:href="#b4tJwOC4M9" opacity="1" fill-opacity="0" stroke="#fcffff" stroke-width="1.25" stroke-opacity="1"></use></g></g><g><use xlink:href="#aBm8XbN9i" opacity="1" fill="#000000" fill-opacity="0"></use><g><use xlink:href="#aBm8XbN9i" opacity="1" fill-opacity="0" stroke="#ffffff" stroke-width="1.2" stroke-opacity="1"></use></g></g><g><use xlink:href="#cdZSS7jSQ" opacity="1" fill="#000000" fill-opacity="0"></use><g><use xlink:href="#cdZSS7jSQ" opacity="1" fill-opacity="0" stroke="#ffffff" stroke-width="1.2" stroke-opacity="1"></use></g></g><g><use xlink:href="#adr3jo604" opacity="1" fill="#000000" fill-opacity="0"></use><g><use xlink:href="#adr3jo604" opacity="1" fill-opacity="0" stroke="#ffffff" stroke-width="1.3" stroke-opacity="1"></use></g></g><g><use xlink:href="#lUHzIIWzO" opacity="1" fill="#fbffff" fill-opacity="1"></use><g><use xlink:href="#lUHzIIWzO" opacity="1" fill-opacity="0" stroke="#000000" stroke-width="0.21" stroke-opacity="0"></use></g></g><g><use xlink:href="#eyyDuDjJs" opacity="1" fill="#000000" fill-opacity="0"></use><g><use xlink:href="#eyyDuDjJs" opacity="1" fill-opacity="0" stroke="#ffffff" stroke-width="1.3" stroke-opacity="1"></use></g></g><g><use xlink:href="#agREw7iVB" opacity="1" fill="#ffffff" fill-opacity="1"></use><g><use xlink:href="#agREw7iVB" opacity="1" fill-opacity="0" stroke="#000000" stroke-width="0.23" stroke-opacity="0"></use></g></g><g><use xlink:href="#bcjnCApiT" opacity="1" fill="#1d2b3a" fill-opacity="1"></use><g><use xlink:href="#bcjnCApiT" opacity="1" fill-opacity="0" stroke="#000000" stroke-width="0.23" stroke-opacity="0"></use></g></g><g><use xlink:href="#b1NtDColyr" opacity="1" fill="#1d2b3a" fill-opacity="1"></use><g><use xlink:href="#b1NtDColyr" opacity="1" fill-opacity="0" stroke="#000000" stroke-width="0.23" stroke-opacity="0"></use></g></g></g></g></svg>